# xmcd
#
# Track frame offsets:
#	150
#	14794
#	33616
#	51471
#	70135
#	91922
#	110490
#	132304
#	143878
#	158974
#
# Disc length: 2340 seconds
#
# Revision: 0
# Processed by: cddbd v1.4PL0 Copyright (c) Steve Scherf et al.
# Submitted via: dBpowerAMP V4.0
#
DISCID=9309220a
DTITLE=Eva Cassidy - Imagine
DYEAR=1900
DGENRE=
TTITLE0=Guess It Doesn't Matter
TTITLE1=Fever
TTITLE2=Who Knows Where the Times Goes
TTITLE3=You've Changed
TTITLE4=Imagine
TTITLE5=Still Not Ready
TTITLE6=Early Mornin Rain
TTITLE7=Tennesee Waltz
TTITLE8=I Can Only Be Me
TTITLE9=Danny Boy
EXTD=
EXTT0=
EXTT1=
EXTT2=
EXTT3=
EXTT4=
EXTT5=
EXTT6=
EXTT7=
EXTT8=
EXTT9=
PLAYORDER=
